<svg xmlns="http://www.w3.org/2000/svg" viewBox="0 0 1024 1024">
 <defs>
  <linearGradient id="bg" x1="110" y1="80" x2="910" y2="950" gradientUnits="userSpaceOnUse"><stop stop-color="#237d74"/><stop offset=".48" stop-color="#125a54"/><stop offset="1" stop-color="#083f3b"/></linearGradient>
  <linearGradient id="glass" x1="224" y1="176" x2="778" y2="850" gradientUnits="userSpaceOnUse"><stop stop-color="#fff" stop-opacity=".30"/><stop offset=".42" stop-color="#fff" stop-opacity=".12"/><stop offset="1" stop-color="#d8fff8" stop-opacity=".06"/></linearGradient>
  <linearGradient id="edge" x1="224" y1="176" x2="800" y2="850" gradientUnits="userSpaceOnUse"><stop stop-color="#fff" stop-opacity=".72"/><stop offset=".45" stop-color="#fff" stop-opacity=".20"/><stop offset="1" stop-color="#fff" stop-opacity=".08"/></linearGradient>
  <radialGradient id="glow" cx="0" cy="0" r="1" gradientTransform="translate(225 165) rotate(46) scale(560)"><stop stop-color="#fff" stop-opacity=".24"/><stop offset="1" stop-color="#fff" stop-opacity="0"/></radialGradient>
  <filter id="shadow" x="-20%" y="-20%" width="140%" height="150%"><feDropShadow dx="0" dy="34" stdDeviation="30" flood-color="#032d2a" flood-opacity=".34"/></filter>
  <filter id="soft"><feGaussianBlur stdDeviation="24"/></filter>
 </defs>
 <rect width="1024" height="1024" rx="224" fill="url(#bg)"/>
 <circle cx="845" cy="190" r="230" fill="#ff8b77" opacity=".22" filter="url(#soft)"/>
 <circle cx="150" cy="872" r="260" fill="#79d7c8" opacity=".16" filter="url(#soft)"/>
 <rect x="122" y="122" width="780" height="780" rx="208" fill="url(#glass)" stroke="url(#edge)" stroke-width="8" filter="url(#shadow)"/>
 <path d="M143 339c58-130 165-194 321-194h226c-89 41-172 102-246 183-83 91-184 140-301 148z" fill="url(#glow)" opacity=".9"/>
 <path d="M204 744 267 270h124l121 294 121-294h124l63 474H683l-31-286-107 255h-66L372 458l-31 286z" fill="#fffaf0"/>
 <path d="M704 188v172M618 274h172" fill="none" stroke="#ff806c" stroke-width="54" stroke-linecap="round"/>
 <path d="M175 302c49-83 118-128 208-139" fill="none" stroke="#fff" stroke-opacity=".52" stroke-width="18" stroke-linecap="round"/>
</svg>
