<svg xmlns="http://www.w3.org/2000/svg" width="1000" height="1250" viewBox="0 0 1000 1250"><defs><linearGradient id="bg" x2="0" y2="1"><stop stop-color="#eef8ff"/><stop offset="1" stop-color="#dbeafa"/></linearGradient><radialGradient id="gl"><stop stop-color="#fffbd8" stop-opacity=".98"/><stop offset="1" stop-color="#fffbd8" stop-opacity="0"/></radialGradient></defs><rect width="1000" height="1250" fill="url(#bg)"/><circle cx="780" cy="260" r="260" fill="url(#gl)"/><circle cx="780" cy="260" r="72" fill="#fff2a3"/><g fill="#fff"><path d="m170 220 17 42 45 4-35 28 12 44-39-25-38 25 12-44-35-28 45-4Z"/><path d="m835 555 12 30 32 3-25 19 8 32-27-18-27 18 8-32-25-19 32-3Z"/><circle cx="185" cy="485" r="13"/></g><path d="M0 930q260-150 500 0t500-15v335H0Z" fill="#a9dcb4"/><path d="M0 1050q270-120 510 0t490-10v210H0Z" fill="#75c99b"/><circle cx="500" cy="655" r="292" fill="#76b7d8" opacity=".12"/><g stroke="#fff9d7" stroke-width="26" stroke-linecap="round"><path d="M790 400v230"/><path d="M720 470h140"/></g><g><path d="M260 530 500 345l240 185v340H260Z" fill="#fffdf5" stroke="#d7aa75" stroke-width="18" stroke-linejoin="round"/><path d="M475 350v-105m-48 52h96" stroke="#edae57" stroke-width="22" stroke-linecap="round"/><path d="M430 870V700q70-105 140 0v170" fill="#ffdba0" stroke="#d7aa75" stroke-width="14"/><circle cx="355" cy="620" r="18" fill="#68ae9a"/><circle cx="645" cy="620" r="18" fill="#68ae9a"/></g><g fill="#76b7d8"><circle cx="190" cy="850" r="21"/><circle cx="780" cy="920" r="17"/></g><g fill="#fff"><circle cx="145" cy="760" r="9"/><circle cx="820" cy="720" r="12"/><path d="m230 1000 10 23 25 2-19 16 6 24-22-13-21 13 7-24-20-16 26-2Z"/></g></svg>